<svg data-v-423bf9ae="" xmlns="http://www.w3.org/2000/svg" viewBox="0 0 359 90" class="iconLeftSlogan"><!----><!----><!----><g data-v-423bf9ae="" id="f8aafd26-f1a3-4ed5-b016-59e67b9bce3a" fill="white" transform="matrix(5.0377834398576615,0,0,5.0377834398576615,101.69395573465052,-15.16372834434609)"><path d="M10.22 4.87L10.22 4.87Q10.22 5.20 9.96 5.60Q9.70 6.00 9.29 6.41Q8.89 6.82 8.39 7.20Q7.89 7.59 7.40 7.90L7.40 7.90Q7 8.15 6.63 8.36Q6.25 8.57 5.93 8.75Q5.61 8.93 5.34 9.10Q5.07 9.27 4.87 9.44L4.87 9.44Q5.37 9.53 5.75 9.61Q6.13 9.70 6.36 9.82L6.36 9.82Q6.52 9.93 6.69 10.16Q6.86 10.39 7 10.63Q7.14 10.87 7.22 11.06Q7.31 11.26 7.31 11.30L7.31 11.30Q7.31 11.60 7.15 11.94Q7 12.27 6.73 12.60Q6.46 12.93 6.09 13.24Q5.71 13.55 5.27 13.80Q4.83 14.05 4.34 14.22Q3.85 14.40 3.34 14.45L3.34 14.45Q3.12 14.27 2.91 14.06Q2.69 13.85 2.52 13.67Q2.35 13.49 2.24 13.35Q2.12 13.22 2.09 13.19L2.09 13.19Q1.85 13.57 1.59 13.88Q1.34 14.20 1.09 14.41Q0.84 14.63 0.59 14.74Q0.34 14.85 0.10 14.84L0.10 14.84Q-0.01 14.83-0.12 14.76Q-0.23 14.69-0.33 14.58Q-0.43 14.47-0.52 14.34Q-0.62 14.21-0.69 14.09Q-0.76 13.97-0.80 13.87Q-0.84 13.77-0.84 13.73L-0.84 13.73Q-0.84 13.02-0.54 12.13Q-0.23 11.25 0.29 10.31Q0.82 9.37 1.54 8.42Q2.26 7.47 3.08 6.62L3.08 6.62Q3.36 5.64 3.53 4.71Q3.70 3.78 3.71 3.01L3.71 3.01Q4.16 3.25 4.44 3.48Q4.71 3.71 4.87 3.88L4.87 3.88Q5.04 4.09 5.13 4.29L5.13 4.29Q5.17 4.41 5.17 4.63L5.17 4.63Q5.17 4.68 5.16 4.72Q5.16 4.76 5.15 4.81L5.15 4.81Q6.11 4.13 7.06 3.72Q8.00 3.32 8.87 3.32L8.87 3.32Q8.98 3.32 9.13 3.40Q9.27 3.48 9.42 3.62Q9.56 3.75 9.71 3.92Q9.86 4.09 9.97 4.26Q10.08 4.44 10.15 4.60Q10.22 4.76 10.22 4.87ZM3.75 9.80L3.75 9.80Q3.38 10.73 2.97 11.60Q2.56 12.47 2.11 13.17L2.11 13.17Q2.88 13.10 3.55 12.94Q4.22 12.78 4.76 12.52Q5.30 12.25 5.71 11.86Q6.12 11.47 6.38 10.94L6.38 10.94Q6.24 10.87 6.08 10.81Q5.92 10.75 5.74 10.70Q5.56 10.65 5.38 10.61Q5.20 10.58 5.03 10.54L5.03 10.54Q4.63 10.47 4.21 10.43L4.21 10.43Q4.12 10.42 3.99 10.23Q3.86 10.04 3.75 9.80ZM4.81 6.55L4.81 6.55Q4.70 6.97 4.56 7.43Q4.42 7.90 4.25 8.39L4.25 8.39Q4.87 7.89 5.57 7.44Q6.28 7 6.98 6.54Q7.68 6.08 8.30 5.55Q8.92 5.03 9.37 4.37L9.37 4.37Q9.39 4.33 9.39 4.29Q9.39 4.24 9.36 4.19Q9.33 4.15 9.29 4.12Q9.24 4.09 9.18 4.09L9.18 4.09Q8.80 4.09 8.30 4.27Q7.81 4.45 7.24 4.77Q6.67 5.10 6.05 5.55Q5.43 6.01 4.81 6.55ZM0.12 13.54L0.12 13.54Q0.18 13.54 0.30 13.39Q0.42 13.23 0.58 12.96Q0.75 12.68 0.94 12.29Q1.13 11.89 1.35 11.42Q1.56 10.94 1.78 10.40Q2.00 9.85 2.22 9.26L2.22 9.26Q1.82 9.78 1.46 10.30Q1.11 10.82 0.82 11.34Q0.54 11.86 0.34 12.37Q0.14 12.88 0.04 13.36L0.04 13.36Q0.02 13.45 0.05 13.50Q0.08 13.54 0.12 13.54ZM9.32 12.98L9.32 12.98Q9.32 13.19 9.47 13.19L9.47 13.19Q9.63 13.19 9.89 12.94Q10.15 12.69 10.43 12.30L10.43 12.30Q10.42 12.23 10.41 12.17Q10.41 12.11 10.41 12.07L10.41 12.07Q10.41 11.93 10.44 11.74Q10.47 11.55 10.60 11.31L10.60 11.31Q10.68 11.13 10.79 10.95L10.79 10.95Q10.89 10.79 11.03 10.61Q11.16 10.43 11.33 10.27L11.33 10.27L11.37 10.23Q11.44 10.32 11.55 10.46Q11.66 10.60 11.77 10.74Q11.89 10.89 11.97 11.01Q12.06 11.14 12.08 11.18L12.08 11.18Q12.08 11.48 11.97 11.77Q11.87 12.07 11.69 12.35L11.69 12.35Q12.10 12.33 12.45 12.14Q12.80 11.96 13.19 11.55L13.19 11.55Q13.25 11.61 13.35 11.72Q13.45 11.83 13.51 11.90L13.51 11.90Q13.22 12.20 12.94 12.40Q12.67 12.60 12.39 12.71Q12.11 12.83 11.83 12.88Q11.54 12.93 11.24 12.93L11.24 12.93Q11.01 13.18 10.74 13.38Q10.47 13.59 10.20 13.74Q9.92 13.89 9.65 13.97Q9.37 14.05 9.13 14.05L9.13 14.05Q8.92 14.05 8.70 13.93Q8.48 13.81 8.31 13.63Q8.13 13.45 8.01 13.24Q7.90 13.04 7.90 12.88L7.90 12.88Q7.90 12.36 8.04 11.85Q8.18 11.33 8.47 10.89Q8.77 10.44 9.23 10.10Q9.69 9.75 10.33 9.58L10.33 9.58Q10.35 9.56 10.40 9.56Q10.45 9.55 10.49 9.55L10.49 9.55Q10.58 9.55 10.69 9.62Q10.79 9.69 10.89 9.78Q10.98 9.87 11.04 9.96Q11.10 10.04 11.10 10.07L11.10 10.07Q11.09 10.10 11.00 10.15Q10.91 10.21 10.76 10.33Q10.61 10.45 10.40 10.68Q10.20 10.91 9.95 11.29L9.95 11.29Q9.58 11.84 9.45 12.29Q9.32 12.74 9.32 12.98ZM13.92 12.98L13.92 12.98Q13.92 13.19 14.07 13.19L14.07 13.19Q14.23 13.19 14.49 12.94Q14.75 12.69 15.03 12.30L15.03 12.30Q15.01 12.23 15.01 12.17Q15.00 12.11 15.00 12.07L15.00 12.07Q15.00 11.93 15.04 11.74Q15.07 11.55 15.19 11.31L15.19 11.31Q15.27 11.13 15.39 10.95L15.39 10.95Q15.48 10.79 15.62 10.61Q15.76 10.43 15.92 10.27L15.92 10.27L15.96 10.23Q16.03 10.32 16.14 10.46Q16.26 10.60 16.37 10.74Q16.48 10.89 16.57 11.01Q16.65 11.14 16.67 11.18L16.67 11.18Q16.67 11.48 16.57 11.77Q16.46 12.07 16.28 12.35L16.28 12.35Q16.69 12.33 17.05 12.14Q17.40 11.96 17.78 11.55L17.78 11.55Q17.84 11.61 17.94 11.72Q18.04 11.83 18.10 11.90L18.10 11.90Q17.81 12.20 17.54 12.40Q17.26 12.60 16.98 12.71Q16.71 12.83 16.42 12.88Q16.13 12.93 15.83 12.93L15.83 12.93Q15.60 13.18 15.33 13.38Q15.07 13.59 14.79 13.74Q14.51 13.89 14.24 13.97Q13.97 14.05 13.72 14.05L13.72 14.05Q13.51 14.05 13.30 13.93Q13.08 13.81 12.90 13.63Q12.72 13.45 12.61 13.24Q12.49 13.04 12.49 12.88L12.49 12.88Q12.49 12.36 12.63 11.85Q12.77 11.33 13.07 10.89Q13.36 10.44 13.83 10.10Q14.29 9.75 14.92 9.58L14.92 9.58Q14.94 9.56 14.99 9.56Q15.05 9.55 15.08 9.55L15.08 9.55Q15.18 9.55 15.28 9.62Q15.39 9.69 15.48 9.78Q15.57 9.87 15.63 9.96Q15.70 10.04 15.70 10.07L15.70 10.07Q15.68 10.10 15.59 10.15Q15.50 10.21 15.35 10.33Q15.20 10.45 15.00 10.68Q14.79 10.91 14.55 11.29L14.55 11.29Q14.18 11.84 14.05 12.29Q13.92 12.74 13.92 12.98ZM21.44 13.00L21.44 13.00Q21.55 13.00 21.71 12.91Q21.88 12.83 22.08 12.70Q22.28 12.58 22.49 12.42Q22.70 12.26 22.88 12.11Q23.07 11.96 23.22 11.83Q23.37 11.70 23.45 11.63L23.45 11.63Q23.52 11.70 23.60 11.79Q23.69 11.89 23.76 11.97L23.76 11.97Q23.61 12.12 23.39 12.34Q23.16 12.55 22.90 12.78Q22.63 13.00 22.35 13.23Q22.07 13.45 21.80 13.63Q21.53 13.81 21.29 13.92Q21.06 14.03 20.90 14.03L20.90 14.03Q20.64 14.03 20.42 13.92Q20.21 13.82 20.03 13.65Q19.86 13.48 19.71 13.27Q19.56 13.05 19.43 12.82L19.43 12.82Q19.31 12.97 19.19 13.16Q19.07 13.34 18.97 13.50Q18.87 13.67 18.80 13.79Q18.73 13.91 18.71 13.94L18.71 13.94Q18.70 13.99 18.67 14.02Q18.64 14.04 18.58 14.04L18.58 14.04Q18.48 14.04 18.34 13.96Q18.20 13.88 18.05 13.75Q17.91 13.62 17.77 13.47Q17.63 13.32 17.53 13.16L17.53 13.16Q17.47 13.08 17.46 12.99Q17.45 12.89 17.45 12.76L17.45 12.76Q17.45 12.30 17.55 11.74Q17.66 11.17 17.86 10.54Q18.06 9.92 18.34 9.25Q18.61 8.59 18.95 7.93Q19.28 7.28 19.67 6.66Q20.06 6.04 20.48 5.50Q20.90 4.96 21.33 4.53Q21.77 4.09 22.22 3.82L22.22 3.82Q22.29 3.78 22.34 3.77Q22.40 3.75 22.44 3.75L22.44 3.75Q22.52 3.75 22.67 3.85Q22.83 3.94 22.99 4.07Q23.16 4.20 23.31 4.33Q23.45 4.46 23.52 4.54L23.52 4.54Q23.56 4.60 23.56 4.72L23.56 4.72Q23.56 5.17 23.26 5.84Q22.96 6.51 22.42 7.32Q21.87 8.13 21.09 9.04Q20.32 9.95 19.37 10.87L19.37 10.87Q19.26 11.22 19.17 11.56Q19.07 11.91 18.99 12.26L18.99 12.26Q19.63 11.33 20.13 10.80Q20.62 10.26 20.98 9.98Q21.33 9.71 21.56 9.63Q21.78 9.55 21.87 9.55L21.87 9.55Q21.95 9.55 22.06 9.64Q22.18 9.72 22.28 9.83Q22.38 9.95 22.46 10.05Q22.54 10.16 22.57 10.21L22.57 10.21Q22.58 10.27 22.43 10.48Q22.28 10.69 22.01 10.96Q21.75 11.24 21.38 11.54Q21.01 11.85 20.58 12.11L20.58 12.11Q20.80 12.42 20.96 12.60Q21.12 12.78 21.23 12.87L21.23 12.87Q21.35 12.97 21.44 13.00ZM20.71 7.48L20.71 7.48Q20.50 7.89 20.29 8.39Q20.07 8.89 19.86 9.45L19.86 9.45Q20.62 8.59 21.15 7.85Q21.69 7.11 22.04 6.51Q22.38 5.91 22.54 5.46Q22.70 5.00 22.70 4.69L22.70 4.69Q22.70 4.67 22.69 4.65Q22.69 4.62 22.65 4.62L22.65 4.62Q22.57 4.62 22.39 4.81Q22.20 5.00 21.94 5.37Q21.68 5.74 21.37 6.27Q21.05 6.80 20.71 7.48ZM30.78 3.12L32.81 5.13Q32.58 6.33 32.09 7.46Q31.61 8.59 30.97 9.60Q30.33 10.61 29.58 11.48Q28.83 12.35 28.09 13.03Q27.34 13.71 26.64 14.18Q25.94 14.65 25.40 14.87L25.40 14.87Q25.33 14.90 25.27 14.91Q25.21 14.92 25.19 14.92L25.19 14.92Q25.05 14.92 24.91 14.81Q24.76 14.70 24.63 14.56Q24.49 14.42 24.39 14.27Q24.29 14.13 24.25 14.05L24.25 14.05Q24.22 14 24.19 13.89Q24.15 13.79 24.15 13.65L24.15 13.65Q24.15 13.30 24.23 12.69Q24.30 12.09 24.45 11.31Q24.59 10.53 24.78 9.61Q24.98 8.70 25.22 7.72Q25.47 6.74 25.75 5.73Q26.03 4.72 26.34 3.77L26.34 3.77Q26.44 3.88 26.59 4.05Q26.74 4.23 26.91 4.43Q27.07 4.63 27.23 4.84Q27.39 5.04 27.52 5.21Q27.64 5.37 27.72 5.48Q27.79 5.58 27.79 5.58L27.79 5.58Q27.43 6.67 27.11 7.75Q26.79 8.84 26.51 9.88Q26.24 10.92 26.00 11.89Q25.76 12.87 25.55 13.71L25.55 13.71Q26.36 13.22 27.07 12.54Q27.77 11.87 28.37 11.07Q28.96 10.27 29.43 9.39Q29.90 8.50 30.23 7.60Q30.55 6.69 30.72 5.80Q30.89 4.91 30.89 4.09L30.89 4.09Q30.89 3.86 30.87 3.69Q30.86 3.52 30.84 3.40Q30.82 3.29 30.80 3.22Q30.78 3.16 30.78 3.12L30.78 3.12ZM35.31 13.08L35.31 13.08Q35.31 13.12 35.36 13.12L35.36 13.12Q35.42 13.12 35.56 13.03Q35.70 12.94 35.89 12.80Q36.07 12.67 36.28 12.50Q36.49 12.33 36.68 12.16Q36.87 12.00 37.03 11.86Q37.18 11.72 37.26 11.65L37.26 11.65Q37.32 11.71 37.42 11.81Q37.51 11.92 37.58 12.00L37.58 12.00Q37.42 12.15 37.19 12.36Q36.96 12.58 36.70 12.81Q36.44 13.04 36.16 13.27Q35.88 13.50 35.61 13.68Q35.34 13.86 35.10 13.97Q34.86 14.08 34.69 14.08L34.69 14.08Q34.56 14.08 34.42 14.03Q34.27 13.99 34.15 13.90Q34.02 13.82 33.94 13.70Q33.86 13.58 33.86 13.44L33.86 13.44Q33.86 13.38 33.85 13.31Q33.85 13.23 33.87 13.10Q33.88 12.97 33.92 12.79Q33.96 12.61 34.04 12.35L34.04 12.35Q33.82 12.58 33.51 12.84Q33.21 13.10 32.87 13.34Q32.54 13.57 32.20 13.76Q31.86 13.95 31.58 14.04L31.58 14.04Q31.54 14.05 31.52 14.05Q31.50 14.05 31.48 14.05L31.48 14.05Q31.41 14.05 31.30 13.99Q31.19 13.92 31.08 13.81Q30.97 13.69 30.89 13.55Q30.81 13.41 30.81 13.26L30.81 13.26Q30.81 13.22 30.85 12.99Q30.89 12.76 31.05 12.40Q31.20 12.04 31.50 11.59Q31.80 11.14 32.32 10.67L32.32 10.67Q32.59 10.43 32.89 10.22L32.89 10.22Q33.15 10.04 33.49 9.86Q33.82 9.67 34.19 9.56L34.19 9.56Q34.21 9.56 34.22 9.56Q34.23 9.55 34.25 9.56L34.25 9.56Q34.33 9.59 34.44 9.65Q34.56 9.71 34.67 9.77Q34.78 9.84 34.87 9.90Q34.95 9.97 34.98 10.01L34.98 10.01Q34.99 10.02 34.98 10.03L34.98 10.03L34.97 10.04Q34.66 10.21 34.38 10.41Q34.11 10.61 33.90 10.79L33.90 10.79Q33.65 11.00 33.44 11.20L33.44 11.20Q32.94 11.70 32.75 12.06Q32.56 12.41 32.56 12.57L32.56 12.57Q32.56 12.69 32.66 12.69L32.66 12.69Q32.75 12.69 32.90 12.61Q33.04 12.53 33.23 12.40Q33.41 12.26 33.64 12.08Q33.86 11.90 34.10 11.70L34.10 11.70Q34.31 11.53 34.51 11.33L34.51 11.33Q34.68 11.17 34.86 10.96Q35.05 10.75 35.18 10.53L35.18 10.53Q35.18 10.52 35.18 10.51L35.18 10.51Q35.19 10.51 35.21 10.51L35.21 10.51Q35.28 10.57 35.38 10.69Q35.47 10.82 35.55 10.97Q35.64 11.12 35.69 11.26Q35.75 11.40 35.75 11.48L35.75 11.48Q35.59 11.80 35.51 12.06Q35.42 12.33 35.38 12.52Q35.33 12.72 35.32 12.86Q35.31 13.00 35.31 13.08ZM40.82 13.08L40.82 13.08Q40.82 13.12 40.86 13.12L40.86 13.12Q40.93 13.12 41.09 13.03Q41.24 12.94 41.44 12.80Q41.64 12.67 41.86 12.50Q42.08 12.33 42.27 12.16Q42.47 12.00 42.63 11.87Q42.79 11.73 42.88 11.66L42.88 11.66Q42.94 11.72 43.02 11.82Q43.11 11.92 43.18 12.00L43.18 12.00Q43.03 12.15 42.80 12.36Q42.57 12.57 42.30 12.80Q42.03 13.03 41.74 13.25Q41.45 13.47 41.18 13.65Q40.91 13.82 40.67 13.93Q40.43 14.04 40.27 14.04L40.27 14.04Q40.15 14.04 40.01 13.97Q39.87 13.90 39.74 13.78Q39.61 13.67 39.53 13.54Q39.44 13.40 39.44 13.28L39.44 13.28Q39.44 13.17 39.53 12.86Q39.61 12.55 39.72 12.14L39.72 12.14Q39.42 12.56 39.12 12.88Q38.83 13.19 38.58 13.42Q38.34 13.64 38.15 13.78Q37.97 13.92 37.88 13.99L37.88 13.99Q37.82 14.02 37.75 14.04Q37.67 14.05 37.61 14.05L37.61 14.05Q37.48 14.05 37.32 13.98Q37.17 13.90 37.03 13.78Q36.90 13.67 36.81 13.52Q36.72 13.38 36.72 13.25L36.72 13.25Q36.72 13.10 36.81 12.75Q36.91 12.40 37.08 11.92Q37.25 11.43 37.47 10.83Q37.70 10.23 37.96 9.56L37.96 9.56Q37.97 9.53 37.98 9.53Q37.99 9.54 38.02 9.54L38.02 9.54Q38.15 9.56 38.38 9.64Q38.60 9.73 38.82 9.83Q39.03 9.93 39.19 10.02Q39.35 10.12 39.35 10.15L39.35 10.15Q39.33 10.20 39.24 10.38Q39.16 10.55 39.04 10.80Q38.93 11.05 38.80 11.34Q38.68 11.63 38.57 11.90Q38.47 12.17 38.40 12.38Q38.33 12.60 38.33 12.70L38.33 12.70Q38.33 12.73 38.36 12.73L38.36 12.73Q38.41 12.73 38.60 12.58Q38.78 12.43 39.05 12.12Q39.32 11.81 39.66 11.31Q40.00 10.81 40.37 10.12L40.37 10.12L40.56 9.58Q40.58 9.52 40.65 9.52L40.65 9.52Q40.70 9.52 40.86 9.61Q41.02 9.71 41.20 9.83Q41.38 9.95 41.53 10.07Q41.67 10.19 41.69 10.23L41.69 10.23Q41.69 10.25 41.68 10.31Q41.67 10.36 41.66 10.39L41.66 10.39Q41.59 10.58 41.50 10.82Q41.41 11.07 41.32 11.34Q41.23 11.61 41.14 11.89Q41.05 12.16 40.98 12.40Q40.91 12.63 40.86 12.81Q40.82 13.00 40.82 13.08ZM44.30 13.20L44.30 13.20Q44.41 13.20 44.60 13.10Q44.79 13.01 45.01 12.86Q45.24 12.71 45.49 12.54Q45.73 12.36 45.95 12.19Q46.16 12.02 46.33 11.87Q46.50 11.73 46.59 11.66L46.59 11.66Q46.65 11.72 46.73 11.82Q46.82 11.92 46.89 12.00L46.89 12.00Q46.74 12.15 46.52 12.36Q46.29 12.58 46.03 12.80Q45.77 13.03 45.48 13.25Q45.20 13.48 44.93 13.66Q44.66 13.84 44.43 13.95Q44.19 14.05 44.04 14.05L44.04 14.05Q43.83 14.05 43.59 13.90Q43.35 13.75 43.15 13.55Q42.94 13.35 42.80 13.15Q42.66 12.94 42.64 12.84L42.64 12.84Q42.62 12.80 42.62 12.74Q42.62 12.68 42.62 12.61L42.62 12.61Q42.62 12.27 42.71 11.75Q42.79 11.22 42.94 10.64Q43.08 10.06 43.27 9.48Q43.46 8.90 43.66 8.46L43.66 8.46Q44.08 7.55 44.52 6.84Q44.96 6.14 45.38 5.62Q45.81 5.09 46.20 4.74Q46.59 4.38 46.90 4.16Q47.21 3.94 47.42 3.85Q47.64 3.75 47.72 3.75L47.72 3.75Q47.85 3.80 47.98 3.89Q48.12 3.99 48.23 4.09Q48.35 4.19 48.44 4.29Q48.53 4.39 48.57 4.44L48.57 4.44Q48.62 4.49 48.64 4.54Q48.66 4.59 48.66 4.68L48.66 4.68Q48.66 4.84 48.58 5.13Q48.49 5.41 48.27 5.85Q48.04 6.30 47.64 6.91Q47.24 7.53 46.60 8.35L46.60 8.35Q46.30 8.73 45.96 9.13L45.96 9.13Q45.68 9.47 45.30 9.87Q44.93 10.27 44.53 10.64L44.53 10.64Q44.33 11.40 44.25 11.97Q44.17 12.54 44.17 12.87L44.17 12.87Q44.17 13.08 44.21 13.14Q44.24 13.20 44.30 13.20ZM45.40 8.19L45.40 8.19Q45.28 8.45 45.18 8.70Q45.08 8.94 44.99 9.18L44.99 9.18Q45.21 8.94 45.38 8.72Q45.55 8.50 45.68 8.35L45.68 8.35Q45.82 8.16 45.94 8.00L45.94 8.00Q46.42 7.33 46.76 6.77Q47.11 6.21 47.34 5.78Q47.56 5.35 47.67 5.07Q47.78 4.79 47.78 4.66L47.78 4.66Q47.78 4.63 47.77 4.61Q47.77 4.59 47.74 4.59L47.74 4.59Q47.67 4.59 47.46 4.80Q47.24 5.00 46.92 5.43Q46.60 5.87 46.21 6.55Q45.81 7.23 45.40 8.19ZM47.24 14.05L47.24 14.05Q47.13 14.05 46.94 13.95Q46.75 13.84 46.57 13.69Q46.40 13.54 46.27 13.37Q46.14 13.21 46.14 13.09L46.14 13.09Q46.14 12.89 46.25 12.44Q46.36 12.00 46.55 11.43Q46.73 10.86 46.97 10.21Q47.20 9.56 47.44 8.93L47.44 8.93L46.48 8.93L46.47 8.93Q46.46 8.93 46.46 8.92L46.46 8.92Q46.46 8.88 46.49 8.80Q46.53 8.72 46.57 8.64Q46.61 8.55 46.67 8.48Q46.73 8.41 46.79 8.39L46.79 8.39L47.67 8.35Q47.87 7.88 48.04 7.49Q48.21 7.10 48.35 6.82L48.35 6.82Q48.38 6.74 48.42 6.65Q48.46 6.57 48.53 6.48Q48.60 6.40 48.72 6.31Q48.84 6.21 49.05 6.12L49.05 6.12Q49.20 6.04 49.41 5.95Q49.63 5.87 49.84 5.79Q50.05 5.71 50.22 5.66Q50.39 5.61 50.46 5.61L50.46 5.61Q50.53 5.61 50.53 5.64L50.53 5.64L50.53 5.65Q50.53 5.66 50.52 5.69L50.52 5.69Q50.48 5.76 50.37 5.98Q50.26 6.21 50.10 6.56Q49.94 6.90 49.74 7.35Q49.55 7.79 49.34 8.28L49.34 8.28L50.98 8.22Q51.05 8.22 51.02 8.30Q51.00 8.38 50.92 8.49Q50.85 8.60 50.75 8.72Q50.65 8.83 50.58 8.89L50.58 8.89Q50.57 8.91 50.52 8.92Q50.48 8.93 50.42 8.93L50.42 8.93L49.07 8.93Q48.82 9.53 48.60 10.14Q48.37 10.75 48.19 11.29Q48.02 11.84 47.91 12.30Q47.80 12.76 47.80 13.05L47.80 13.05Q47.80 13.09 47.84 13.09L47.84 13.09Q47.92 13.09 48.07 13.01Q48.22 12.92 48.41 12.78Q48.60 12.65 48.81 12.48Q49.02 12.32 49.21 12.16Q49.40 12.00 49.56 11.86Q49.71 11.73 49.79 11.66L49.79 11.66Q49.85 11.72 49.94 11.82Q50.03 11.92 50.10 12.00L50.10 12.00Q49.95 12.15 49.72 12.36Q49.50 12.58 49.24 12.80Q48.97 13.03 48.69 13.25Q48.41 13.48 48.14 13.66Q47.87 13.84 47.63 13.95Q47.40 14.05 47.24 14.05Z"></path></g><!----><g data-v-423bf9ae="" id="0b52f045-d30f-4838-a531-15f3230802cb" transform="matrix(1.0235879880641794,0,0,1.0235879880641794,-12.022602437683872,-5.128271483862001)" stroke="none" fill="white"><path d="M86.635 78.191l.651.021.149-1.5-9.002-.302-1.051-1.05-.425-.04.604-5.324-.659-.074-.606 5.336-8.516-.798-.302-7.803 10.205 3.302.6-.75-3.15-1.051 5.852-.601.3-.601-.476-.051.051-.01-.781-4.165.155.025.9-1.651-6.752-1.05-2.252-2.4v-2.401l3.753 4.651 1.199.45-2.4-4.052 2.851-.449.151-.601-1.355-.175-.354-4.487.059.012 11.403-4.052.15-1.051-.441-.074-.882-3.2L88.035 41l-10.352-1.95-.151-.751 1.197-1.088.837-.14-.87-5.077.787-1.048-3.451-1.8 1.048-.996 2.055-.921-.238-.804.137-.131-.189-.045-.645-2.176.984-1.229-3.767-.991-.221-2.428.386-.481L51.574 5.438 24.865 24.644c-.9 6.452.601 6.002.601 6.002l2.701.901-6.453 3.75c-1.501 1.951-.3 5.402-.3 5.402-1.95 2.25-.149 5.25-.149 5.25l4.201 1.201-4.052 3.902c-1.05 3.45 1.5 3.45 1.5 3.45h1.2l.15 1.5-4.951.601c-2.251 2.551.15 4.201.15 4.201l6.902 1.951-3.601 1.2c-1.501 1.2-.751 4.052-.751 4.052l-4.201.6c-2.25 2.251-.45 7.652-.45 7.652l7.351.3-10.352.45c-3.902 3.002-.901 10.953-.901 10.953l44.264 5.402 30.31-4.501-.939-.939c-.241-1.05-1.081-5.205-.46-9.733zm-8.038-41.632l-13.368-5.463-6.452-3.901-1.199.45-3.902-2.25c-1.05-1.65-.3-5.702-.3-5.702L78 31.858l.798 4.667-.201.034zm-3.616 2.191l-12.154-2.701-4.2-2.402c-1.5-2.1 0-4.651 0-4.651l16.354 9.754zM52.025 6.938l22.504 12.503.203 2.231-12.655-3.331-10.202-5.251c-.602-2.701.15-6.152.15-6.152zm-8.253 7.803l33.542 8.685.785 2.648-15.571-3.681-9.752-4.651-2.701 1.35-6.152-1.35c-1.202-2.701-.151-3.001-.151-3.001zm-2.401 18.905l44.207 8.605.842 3.051-44.899-7.604c-.75-1.649-.15-4.052-.15-4.052zm8.854 12.156l25.071 4.664.359 4.526-2.624-.338-1.801-2.401-7.352.601-14.255-2.852c-1.65-3 .602-4.2.602-4.2zm.448 12.153l28.708 4.663.791 4.22-29.35-3.181c-1.799-2.252-.149-5.702-.149-5.702zm7.204 19.356l28.091.86c-.544 4.052.05 7.806.37 9.388l-28.011 3.557c-3.451-6.303-.45-13.805-.45-13.805z"></path></g><!----><g data-v-423bf9ae="" id="d64ee0f1-efcc-4e5a-8bcd-432fceece29d" fill="white" transform="matrix(0.4404260835409747,0,0,0.4404260835409747,97.2948494274729,58.722765698505825)"><path d="M0.38 5.32C0.38 5.68 0.98 6.57 1.13 6.57C1.37 6.57 1.83 5.95 1.83 5.64C1.83 5.24 1.16 4.87 1.16 4.55C1.16 4.12 2.14 3.33 2.14 3.28C2.14 3.15 1.95 2.98 1.88 2.98C1.74 2.98 0.38 4.30 0.38 5.32ZM2.97 5.32C2.97 5.68 3.57 6.57 3.72 6.57C3.96 6.57 4.42 5.95 4.42 5.64C4.42 5.24 3.75 4.87 3.75 4.55C3.75 4.12 4.73 3.33 4.73 3.28C4.73 3.15 4.54 2.98 4.47 2.98C4.33 2.98 2.97 4.30 2.97 5.32ZM13.03 3.51C13.03 3.72 13.10 3.79 13.30 3.79L14.11 3.77C14.21 3.77 14.25 6.61 14.25 8.55L14.25 10.42C14.25 11.30 14.24 12.18 14.20 12.18L13.59 12.18C13.37 12.18 13.30 12.19 13.30 12.39C13.30 12.63 13.34 12.68 13.54 12.68C13.66 12.68 14.49 12.64 14.91 12.64C15.33 12.64 16.10 12.68 16.42 12.68C16.59 12.68 16.62 12.61 16.62 12.40C16.62 12.24 16.59 12.18 16.42 12.18L15.61 12.18C15.54 12.18 15.46 9.18 15.46 8.37C15.46 8.30 15.46 8.26 15.57 8.26C15.96 8.26 16.56 8.27 16.86 8.27C19.10 8.32 19.24 10.00 19.24 11.68L19.24 12.49C19.24 12.61 19.29 12.64 19.39 12.64C19.39 12.64 20.83 12.68 21.31 12.68C21.48 12.68 21.53 12.64 21.53 12.53C21.53 12.24 21.48 12.18 21.32 12.18L20.68 12.18C20.58 12.18 20.55 12.14 20.52 11.31C20.44 8.99 19.07 8.34 18.16 8.05C18.02 8.01 18.05 8.01 18.16 7.95C18.75 7.69 20.06 6.94 20.06 5.63C20.06 3.63 18.37 3.21 16.97 3.21C16.65 3.21 15.36 3.29 14.94 3.29C14.52 3.29 13.54 3.26 13.31 3.26C13.13 3.26 13.03 3.28 13.03 3.51ZM15.46 7.80L15.46 4.40C15.46 4.05 15.48 3.68 15.53 3.68C15.74 3.65 16.02 3.65 16.24 3.65C17.54 3.65 18.79 4.47 18.79 5.82C18.79 6.99 18.24 7.57 17.58 7.88C17.54 7.90 17.50 7.90 17.43 7.90C16.95 7.88 16.24 7.88 15.64 7.87C15.47 7.87 15.46 7.85 15.46 7.80ZM29.01 12.39C29.01 12.63 29.04 12.68 29.23 12.68C29.55 12.68 30.52 12.64 30.94 12.64C31.36 12.64 35.87 12.68 36.19 12.68C36.32 12.68 36.47 12.66 36.47 12.49C36.47 12.07 36.51 11.23 36.51 10.53C36.51 10.39 36.36 10.39 36.23 10.39C36.12 10.39 35.99 10.39 35.99 10.51C35.98 11.06 35.98 11.41 35.95 11.76C35.92 12.01 35.92 12.04 35.83 12.04C35.67 12.04 33.04 12.08 31.54 12.08C31.47 12.08 31.43 10.11 31.39 8.26C31.39 8.06 31.43 8.09 31.57 8.09L33.85 8.09C34.55 8.09 34.58 8.20 34.58 8.30L34.58 9.00C34.58 9.14 34.76 9.14 34.87 9.14C34.97 9.14 35.10 9.13 35.10 9.02C35.10 8.83 35.07 8.33 35.07 7.83C35.07 7.32 35.10 6.83 35.10 6.71C35.10 6.59 34.96 6.58 34.86 6.58C34.75 6.58 34.58 6.59 34.58 6.72L34.58 7.45C34.58 7.62 34.13 7.63 33.85 7.63L31.51 7.63C31.40 7.63 31.39 7.63 31.39 7.45C31.37 6.75 31.36 6.06 31.36 5.46C31.36 5.12 31.36 3.71 31.44 3.71C32.68 3.71 35.18 3.75 35.18 3.81C35.18 3.99 35.14 4.83 35.14 4.89C35.14 5.04 35.21 5.10 35.39 5.10C35.59 5.10 35.66 5.08 35.66 4.94C35.66 3.85 35.71 3.36 35.71 3.09C35.71 2.91 35.63 2.90 35.43 2.90C35.24 2.90 35.24 2.95 35.21 3.11C35.20 3.25 35.27 3.25 34.36 3.25C33.74 3.25 31.60 3.29 30.83 3.29C30.34 3.29 29.40 3.25 29.30 3.25C29.18 3.25 29.12 3.30 29.12 3.49C29.12 3.72 29.19 3.74 29.36 3.74L30.02 3.74C30.07 3.74 30.14 4.79 30.14 5.71C30.14 5.80 30.20 8.27 30.20 9.83L30.20 11.17C30.20 11.84 30.17 12.18 30.14 12.18L29.29 12.18C29.06 12.18 29.01 12.21 29.01 12.39ZM44.34 12.39C44.34 12.63 44.34 12.68 44.53 12.68C44.70 12.68 45.02 12.64 45.60 12.64C46.21 12.64 46.76 12.68 46.91 12.68C47.08 12.68 47.08 12.61 47.08 12.40C47.08 12.24 47.08 12.18 46.91 12.18L45.84 12.18C45.84 12.18 45.82 12.18 45.82 12.17C45.84 11.87 46.61 9.90 46.96 9.02C47.03 8.83 47.04 8.79 47.25 8.79L50.08 8.79C50.22 8.79 50.22 8.81 50.29 9.03C50.55 9.77 51.27 11.89 51.27 12.17C51.27 12.18 51.25 12.18 51.25 12.18L50.48 12.18C50.26 12.18 50.25 12.19 50.25 12.39C50.25 12.63 50.26 12.68 50.43 12.68C50.75 12.68 51.62 12.64 52.04 12.64C52.46 12.64 53.13 12.68 53.34 12.68C53.48 12.68 53.49 12.61 53.49 12.40C53.49 12.24 53.48 12.18 53.34 12.18L52.85 12.18C52.75 12.18 51.73 9.34 51.17 7.78L49.49 3.07C49.48 3.00 49.41 2.94 49.32 2.94C49.20 2.94 49.10 3.16 49.01 3.35C48.86 3.71 48.62 3.84 48.51 4.13L47.03 7.57C46.84 8.01 45.14 12.18 45.01 12.18L44.59 12.18C44.37 12.18 44.34 12.19 44.34 12.39ZM47.24 8.33C47.24 8.30 47.26 8.23 47.31 8.13L48.68 4.77C48.72 4.66 48.75 4.61 48.78 4.61C48.79 4.61 48.80 4.63 48.85 4.77L50.01 8.18C50.04 8.25 50.05 8.29 50.05 8.32C50.05 8.36 50.02 8.37 49.92 8.37L47.42 8.37C47.24 8.37 47.24 8.34 47.24 8.33ZM61.18 12.46C61.18 12.63 61.19 12.70 61.38 12.70C61.53 12.70 62.76 12.64 63.15 12.64C64.01 12.64 64.89 12.70 65.74 12.70C68.36 12.70 70.76 11.07 70.76 7.91C70.76 4.89 68.42 3.07 65.38 3.07C64.82 3.07 63.56 3.23 62.52 3.23C62.05 3.23 61.59 3.22 61.53 3.22C61.35 3.22 61.33 3.32 61.33 3.49C61.33 3.68 61.40 3.70 61.53 3.70L62.50 3.67C62.52 3.67 62.52 4.20 62.52 4.72C62.52 5.91 62.44 12.21 62.36 12.21L61.46 12.21C61.28 12.21 61.18 12.22 61.18 12.46ZM63.76 11.40C63.76 9.46 63.76 7.52 63.77 5.60C63.77 5.03 63.81 3.61 63.85 3.60C64.15 3.53 64.74 3.51 65.09 3.51C67.65 3.51 69.26 5.75 69.26 7.73C69.26 8.95 69.22 12.25 64.54 12.25C64.27 12.25 63.87 12.25 63.77 12.21C63.76 12.19 63.76 11.79 63.76 11.40ZM88.52 12.39C88.52 12.63 88.56 12.68 88.76 12.68C89.08 12.68 89.84 12.64 90.55 12.64C91.21 12.64 92.01 12.68 92.23 12.68C92.40 12.68 92.43 12.61 92.43 12.40C92.43 12.24 92.40 12.18 92.23 12.18L91.27 12.18C91.17 12.18 91.14 9.55 91.14 7.76L91.14 5.87C91.14 5.14 91.17 3.70 91.27 3.70L92.18 3.70C92.40 3.70 92.43 3.68 92.43 3.49C92.43 3.25 92.40 3.19 92.23 3.19C91.91 3.19 91.24 3.23 90.58 3.23C89.77 3.23 89.05 3.19 88.83 3.19C88.65 3.19 88.58 3.21 88.58 3.44C88.58 3.68 88.66 3.70 88.83 3.70L89.75 3.70C89.80 3.70 89.87 4.79 89.87 5.71L89.87 7.08C89.87 8.92 89.85 12.18 89.74 12.18L88.82 12.18C88.59 12.18 88.52 12.19 88.52 12.39ZM100.06 5.01C100.06 5.17 100.24 5.17 100.37 5.17C100.52 5.17 100.56 5.15 100.58 4.97L100.69 3.89C100.70 3.81 101.25 3.75 102.00 3.75L103.99 3.75C104.05 3.75 104.08 4.35 104.08 4.97C104.08 6.43 104.02 12.18 103.89 12.18L103.03 12.18C102.80 12.18 102.76 12.19 102.76 12.39C102.76 12.63 102.77 12.68 102.97 12.68C103.29 12.68 104.27 12.64 104.69 12.64C105.11 12.64 106.05 12.68 106.37 12.68C106.54 12.68 106.57 12.61 106.57 12.40C106.57 12.24 106.54 12.18 106.37 12.18L105.38 12.18C105.35 12.18 105.35 11.76 105.35 11.31C105.35 9.56 105.43 5.96 105.43 5.92C105.45 5.18 105.45 3.75 105.55 3.75L107.16 3.75C107.87 3.75 108.70 3.78 108.70 3.85C108.70 3.99 108.65 4.90 108.65 4.97C108.65 5.12 108.72 5.17 108.91 5.17C109.10 5.17 109.17 5.17 109.17 5.03C109.17 3.93 109.23 3.40 109.23 3.14C109.23 2.94 109.14 2.94 108.95 2.94C108.79 2.94 108.74 2.98 108.72 3.16C108.72 3.23 108.08 3.28 107.24 3.28L102.24 3.28C101.58 3.28 100.77 3.28 100.77 3.21L100.77 3.07C100.77 2.94 100.65 2.94 100.55 2.94C100.32 2.94 100.30 3.00 100.28 3.19C100.23 3.89 100.06 4.97 100.06 5.01ZM115.58 12.07C115.58 12.31 116.03 12.75 116.45 12.75C116.63 12.75 117.08 12.35 117.08 11.90C117.08 11.51 116.51 11.20 116.24 11.20C115.98 11.20 115.58 11.76 115.58 12.07ZM135.20 12.39C135.20 12.63 135.23 12.68 135.42 12.68C135.74 12.68 136.71 12.64 137.13 12.64C137.55 12.64 141.90 12.68 142.23 12.68C142.49 12.68 142.56 12.66 142.58 12.49C142.63 12.08 142.87 10.72 142.87 10.60C142.87 10.47 142.72 10.44 142.55 10.43C142.45 10.42 142.37 10.46 142.35 10.56L142.18 11.76C142.14 12.05 142.13 12.03 141.90 12.04C141.75 12.05 139.24 12.12 137.82 12.12C137.77 12.12 137.73 11.38 137.73 10.54L137.73 6.66C137.73 5.40 137.75 3.70 137.84 3.70L138.82 3.70C139.06 3.70 139.09 3.63 139.09 3.44C139.09 3.23 139.08 3.19 138.84 3.19C138.52 3.19 137.58 3.23 137.16 3.23C136.74 3.23 135.80 3.19 135.58 3.19C135.35 3.19 135.30 3.22 135.30 3.44C135.30 3.65 135.34 3.70 135.53 3.70L136.36 3.70C136.40 3.70 136.43 4.23 136.43 4.90L136.43 8.13C136.43 10.07 136.40 12.18 136.32 12.18L135.48 12.18C135.25 12.18 135.20 12.21 135.20 12.39ZM150.42 8.15C150.42 11.17 152.75 12.80 155.01 12.80C157.79 12.80 159.77 10.89 159.77 8.06C159.77 5.33 158.02 3.11 155.22 3.11C152.61 3.11 150.42 5.10 150.42 8.15ZM151.82 7.77C151.82 5.64 153.10 3.58 155.08 3.58C157.32 3.58 158.40 5.81 158.40 7.94C158.40 10.08 157.29 12.32 155.02 12.32C153.03 12.32 151.82 10.28 151.82 7.77ZM167.03 3.51C167.03 3.75 167.13 3.77 167.30 3.77L167.73 3.77C167.82 3.77 170.60 10.99 170.65 11.07C171.14 12.18 171.23 12.99 171.44 12.99C171.71 12.99 171.77 12.67 172.05 12.26C172.20 12.04 172.28 12.01 172.44 11.66L175.67 4.06C175.78 3.81 175.77 3.77 176.13 3.77C176.36 3.77 176.43 3.75 176.43 3.56C176.43 3.32 176.39 3.26 176.19 3.26C176.05 3.26 175.52 3.30 175.10 3.30C174.68 3.30 173.85 3.26 173.63 3.26C173.43 3.26 173.38 3.29 173.38 3.51C173.38 3.75 173.50 3.77 173.67 3.77L174.66 3.77C174.73 3.77 174.75 3.81 174.75 3.95C174.75 4.63 173.07 8.72 172.34 10.63C172.20 10.99 172.12 11.17 172.07 11.17C172.03 11.17 171.93 10.98 171.79 10.60C171.22 9.10 170.09 6.01 169.57 4.49C169.48 4.27 169.40 3.93 169.40 3.79L169.40 3.77L170.38 3.77C170.60 3.77 170.67 3.75 170.67 3.56C170.67 3.32 170.63 3.26 170.44 3.26C170.11 3.26 169.04 3.30 168.62 3.30C168.20 3.30 167.48 3.26 167.30 3.26C167.12 3.26 167.03 3.28 167.03 3.51ZM184.04 12.39C184.04 12.63 184.07 12.68 184.27 12.68C184.59 12.68 185.56 12.64 185.98 12.64C186.40 12.64 190.90 12.68 191.23 12.68C191.35 12.68 191.51 12.66 191.51 12.49C191.51 12.07 191.55 11.23 191.55 10.53C191.55 10.39 191.39 10.39 191.27 10.39C191.16 10.39 191.03 10.39 191.03 10.51C191.02 11.06 191.02 11.41 190.99 11.76C190.96 12.01 190.96 12.04 190.86 12.04C190.71 12.04 188.08 12.08 186.58 12.08C186.51 12.08 186.47 10.11 186.42 8.26C186.42 8.06 186.47 8.09 186.61 8.09L188.89 8.09C189.59 8.09 189.62 8.20 189.62 8.30L189.62 9.00C189.62 9.14 189.80 9.14 189.91 9.14C190.01 9.14 190.13 9.13 190.13 9.02C190.13 8.83 190.11 8.33 190.11 7.83C190.11 7.32 190.13 6.83 190.13 6.71C190.13 6.59 189.99 6.58 189.90 6.58C189.78 6.58 189.62 6.59 189.62 6.72L189.62 7.45C189.62 7.62 189.17 7.63 188.89 7.63L186.55 7.63C186.44 7.63 186.42 7.63 186.42 7.45C186.41 6.75 186.40 6.06 186.40 5.46C186.40 5.12 186.40 3.71 186.48 3.71C187.71 3.71 190.22 3.75 190.22 3.81C190.22 3.99 190.18 4.83 190.18 4.89C190.18 5.04 190.25 5.10 190.43 5.10C190.62 5.10 190.69 5.08 190.69 4.94C190.69 3.85 190.75 3.36 190.75 3.09C190.75 2.91 190.67 2.90 190.47 2.90C190.27 2.90 190.27 2.95 190.25 3.11C190.23 3.25 190.30 3.25 189.39 3.25C188.78 3.25 186.63 3.29 185.86 3.29C185.37 3.29 184.44 3.25 184.34 3.25C184.21 3.25 184.16 3.30 184.16 3.49C184.16 3.72 184.23 3.74 184.39 3.74L185.05 3.74C185.11 3.74 185.18 4.79 185.18 5.71C185.18 5.80 185.23 8.27 185.23 9.83L185.23 11.17C185.23 11.84 185.21 12.18 185.18 12.18L184.32 12.18C184.10 12.18 184.04 12.21 184.04 12.39ZM199.44 12.46C199.44 12.63 199.46 12.70 199.64 12.70C199.79 12.70 201.03 12.64 201.42 12.64C202.27 12.64 203.15 12.70 204.01 12.70C206.63 12.70 209.02 11.07 209.02 7.91C209.02 4.89 206.68 3.07 203.64 3.07C203.08 3.07 201.82 3.23 200.79 3.23C200.31 3.23 199.85 3.22 199.79 3.22C199.61 3.22 199.60 3.32 199.60 3.49C199.60 3.68 199.67 3.70 199.79 3.70L200.76 3.67C200.79 3.67 200.79 4.20 200.79 4.72C200.79 5.91 200.70 12.21 200.62 12.21L199.72 12.21C199.54 12.21 199.44 12.22 199.44 12.46ZM202.02 11.40C202.02 9.46 202.02 7.52 202.03 5.60C202.03 5.03 202.08 3.61 202.12 3.60C202.41 3.53 203 3.51 203.35 3.51C205.91 3.51 207.52 5.75 207.52 7.73C207.52 8.95 207.48 12.25 202.80 12.25C202.54 12.25 202.13 12.25 202.03 12.21C202.02 12.19 202.02 11.79 202.02 11.40ZM226.79 12.39C226.79 12.63 226.83 12.68 227.02 12.68C227.35 12.68 228.10 12.64 228.82 12.64C229.47 12.64 230.27 12.68 230.50 12.68C230.66 12.68 230.69 12.61 230.69 12.40C230.69 12.24 230.66 12.18 230.50 12.18L229.53 12.18C229.43 12.18 229.40 9.55 229.40 7.76L229.40 5.87C229.40 5.14 229.43 3.70 229.53 3.70L230.44 3.70C230.66 3.70 230.69 3.68 230.69 3.49C230.69 3.25 230.66 3.19 230.50 3.19C230.17 3.19 229.50 3.23 228.84 3.23C228.03 3.23 227.32 3.19 227.09 3.19C226.91 3.19 226.84 3.21 226.84 3.44C226.84 3.68 226.93 3.70 227.09 3.70L228.02 3.70C228.06 3.70 228.13 4.79 228.13 5.71L228.13 7.08C228.13 8.92 228.12 12.18 228.00 12.18L227.08 12.18C226.86 12.18 226.79 12.19 226.79 12.39ZM238.32 5.01C238.32 5.17 238.50 5.17 238.63 5.17C238.78 5.17 238.83 5.15 238.84 4.97L238.95 3.89C238.97 3.81 239.51 3.75 240.27 3.75L242.26 3.75C242.31 3.75 242.34 4.35 242.34 4.97C242.34 6.43 242.28 12.18 242.16 12.18L241.29 12.18C241.07 12.18 241.02 12.19 241.02 12.39C241.02 12.63 241.04 12.68 241.23 12.68C241.56 12.68 242.54 12.64 242.96 12.64C243.38 12.64 244.31 12.68 244.64 12.68C244.80 12.68 244.83 12.61 244.83 12.40C244.83 12.24 244.80 12.18 244.64 12.18L243.64 12.18C243.61 12.18 243.61 11.76 243.61 11.31C243.61 9.56 243.70 5.96 243.70 5.92C243.71 5.18 243.71 3.75 243.81 3.75L245.42 3.75C246.13 3.75 246.96 3.78 246.96 3.85C246.96 3.99 246.92 4.90 246.92 4.97C246.92 5.12 246.99 5.17 247.17 5.17C247.37 5.17 247.44 5.17 247.44 5.03C247.44 3.93 247.49 3.40 247.49 3.14C247.49 2.94 247.41 2.94 247.21 2.94C247.06 2.94 247.00 2.98 246.99 3.16C246.99 3.23 246.34 3.28 245.50 3.28L240.51 3.28C239.85 3.28 239.04 3.28 239.04 3.21L239.04 3.07C239.04 2.94 238.91 2.94 238.81 2.94C238.59 2.94 238.56 3.00 238.55 3.19C238.49 3.89 238.32 4.97 238.32 5.01ZM253.85 12.07C253.85 12.31 254.30 12.75 254.72 12.75C254.90 12.75 255.35 12.35 255.35 11.90C255.35 11.51 254.77 11.20 254.51 11.20C254.24 11.20 253.85 11.76 253.85 12.07ZM273.04 3.51C273.04 3.75 273.14 3.77 273.31 3.77L273.74 3.77C273.83 3.77 276.61 10.99 276.65 11.07C277.14 12.18 277.24 12.99 277.45 12.99C277.72 12.99 277.77 12.67 278.05 12.26C278.21 12.04 278.29 12.01 278.45 11.66L281.68 4.06C281.79 3.81 281.78 3.77 282.14 3.77C282.37 3.77 282.44 3.75 282.44 3.56C282.44 3.32 282.39 3.26 282.20 3.26C282.06 3.26 281.53 3.30 281.11 3.30C280.69 3.30 279.86 3.26 279.64 3.26C279.44 3.26 279.38 3.29 279.38 3.51C279.38 3.75 279.51 3.77 279.68 3.77L280.67 3.77C280.74 3.77 280.76 3.81 280.76 3.95C280.76 4.63 279.08 8.72 278.35 10.63C278.21 10.99 278.12 11.17 278.08 11.17C278.04 11.17 277.94 10.98 277.80 10.60C277.23 9.10 276.09 6.01 275.58 4.49C275.49 4.27 275.41 3.93 275.41 3.79L275.41 3.77L276.39 3.77C276.61 3.77 276.68 3.75 276.68 3.56C276.68 3.32 276.64 3.26 276.44 3.26C276.12 3.26 275.04 3.30 274.62 3.30C274.20 3.30 273.49 3.26 273.31 3.26C273.13 3.26 273.04 3.28 273.04 3.51ZM288.23 12.39C288.23 12.63 288.23 12.68 288.43 12.68C288.60 12.68 288.92 12.64 289.49 12.64C290.11 12.64 290.65 12.68 290.81 12.68C290.98 12.68 290.98 12.61 290.98 12.40C290.98 12.24 290.98 12.18 290.81 12.18L289.73 12.18C289.73 12.18 289.72 12.18 289.72 12.17C289.73 11.87 290.50 9.90 290.85 9.02C290.92 8.83 290.93 8.79 291.14 8.79L293.97 8.79C294.11 8.79 294.11 8.81 294.18 9.03C294.45 9.77 295.16 11.89 295.16 12.17C295.16 12.18 295.15 12.18 295.15 12.18L294.38 12.18C294.15 12.18 294.14 12.19 294.14 12.39C294.14 12.63 294.15 12.68 294.32 12.68C294.64 12.68 295.51 12.64 295.93 12.64C296.35 12.64 297.02 12.68 297.23 12.68C297.37 12.68 297.39 12.61 297.39 12.40C297.39 12.24 297.37 12.18 297.23 12.18L296.74 12.18C296.65 12.18 295.62 9.34 295.06 7.78L293.38 3.07C293.37 3.00 293.30 2.94 293.22 2.94C293.09 2.94 292.99 3.16 292.91 3.35C292.75 3.71 292.52 3.84 292.40 4.13L290.92 7.57C290.74 8.01 289.03 12.18 288.90 12.18L288.48 12.18C288.26 12.18 288.23 12.19 288.23 12.39ZM291.13 8.33C291.13 8.30 291.16 8.23 291.20 8.13L292.57 4.77C292.61 4.66 292.64 4.61 292.67 4.61C292.68 4.61 292.70 4.63 292.74 4.77L293.90 8.18C293.93 8.25 293.94 8.29 293.94 8.32C293.94 8.36 293.92 8.37 293.82 8.37L291.31 8.37C291.13 8.37 291.13 8.34 291.13 8.33ZM304.86 3.51C304.86 3.75 304.95 3.77 305.12 3.77L305.65 3.77C305.70 3.77 305.70 4.12 305.70 4.55C305.70 5.66 305.69 8.96 305.69 9.42C305.69 11.13 305.94 12.80 308.80 12.80C309.88 12.80 311.04 12.38 311.70 12.00C311.95 11.86 312.24 11.72 312.33 11.72C312.59 11.72 312.86 12.74 313.19 12.74C313.52 12.74 313.53 12.35 313.53 12.25C313.53 11.96 313.59 10.08 313.63 8.16C313.68 6.12 313.67 3.77 313.78 3.77L314.10 3.77C314.33 3.77 314.40 3.75 314.40 3.56C314.40 3.32 314.36 3.26 314.16 3.26C314.02 3.26 313.49 3.30 313.07 3.30C312.65 3.30 311.85 3.26 311.63 3.26C311.44 3.26 311.35 3.28 311.35 3.51C311.35 3.75 311.46 3.77 311.63 3.77L312.33 3.77C312.40 3.77 312.41 4.30 312.41 4.87L312.41 9.14C312.41 11.19 312.41 11.12 312.07 11.34C311.68 11.61 310.87 12.08 309.69 12.08C307.72 12.08 306.92 11.17 306.92 9.41C306.92 8.82 306.99 3.77 307.10 3.77L308.01 3.77C308.24 3.77 308.28 3.75 308.28 3.56C308.28 3.32 308.27 3.26 308.07 3.26C307.75 3.26 306.87 3.30 306.45 3.30C306.03 3.30 305.34 3.26 305.12 3.26C304.93 3.26 304.86 3.28 304.86 3.51ZM322.43 12.39C322.43 12.63 322.46 12.68 322.66 12.68C322.98 12.68 323.95 12.64 324.37 12.64C324.79 12.64 329.14 12.68 329.46 12.68C329.73 12.68 329.80 12.66 329.81 12.49C329.87 12.08 330.11 10.72 330.11 10.60C330.11 10.47 329.95 10.44 329.78 10.43C329.69 10.42 329.60 10.46 329.59 10.56L329.42 11.76C329.38 12.05 329.36 12.03 329.14 12.04C328.99 12.05 326.48 12.12 325.05 12.12C325.01 12.12 324.97 11.38 324.97 10.54L324.97 6.66C324.97 5.40 324.98 3.70 325.08 3.70L326.06 3.70C326.30 3.70 326.33 3.63 326.33 3.44C326.33 3.23 326.31 3.19 326.07 3.19C325.75 3.19 324.81 3.23 324.39 3.23C323.97 3.23 323.04 3.19 322.81 3.19C322.59 3.19 322.53 3.22 322.53 3.44C322.53 3.65 322.57 3.70 322.77 3.70L323.60 3.70C323.64 3.70 323.67 4.23 323.67 4.90L323.67 8.13C323.67 10.07 323.64 12.18 323.55 12.18L322.71 12.18C322.49 12.18 322.43 12.21 322.43 12.39ZM336.06 5.01C336.06 5.17 336.24 5.17 336.36 5.17C336.52 5.17 336.56 5.15 336.57 4.97L336.69 3.89C336.70 3.81 337.25 3.75 338.00 3.75L339.99 3.75C340.05 3.75 340.07 4.35 340.07 4.97C340.07 6.43 340.02 12.18 339.89 12.18L339.02 12.18C338.80 12.18 338.76 12.19 338.76 12.39C338.76 12.63 338.77 12.68 338.97 12.68C339.29 12.68 340.27 12.64 340.69 12.64C341.11 12.64 342.05 12.68 342.37 12.68C342.54 12.68 342.57 12.61 342.57 12.40C342.57 12.24 342.54 12.18 342.37 12.18L341.38 12.18C341.35 12.18 341.35 11.76 341.35 11.31C341.35 9.56 341.43 5.96 341.43 5.92C341.45 5.18 341.45 3.75 341.54 3.75L343.15 3.75C343.87 3.75 344.69 3.78 344.69 3.85C344.69 3.99 344.65 4.90 344.65 4.97C344.65 5.12 344.72 5.17 344.90 5.17C345.10 5.17 345.17 5.17 345.17 5.03C345.17 3.93 345.23 3.40 345.23 3.14C345.23 2.94 345.14 2.94 344.95 2.94C344.79 2.94 344.74 2.98 344.72 3.16C344.72 3.23 344.08 3.28 343.24 3.28L338.24 3.28C337.58 3.28 336.77 3.28 336.77 3.21L336.77 3.07C336.77 2.94 336.64 2.94 336.55 2.94C336.32 2.94 336.29 3.00 336.28 3.19C336.22 3.89 336.06 4.97 336.06 5.01ZM352.98 12.39C352.98 12.63 353.01 12.68 353.21 12.68C353.53 12.68 354.49 12.64 354.91 12.64C355.33 12.64 359.84 12.68 360.16 12.68C360.29 12.68 360.44 12.66 360.44 12.49C360.44 12.07 360.49 11.23 360.49 10.53C360.49 10.39 360.33 10.39 360.21 10.39C360.09 10.39 359.97 10.39 359.97 10.51C359.95 11.06 359.95 11.41 359.93 11.76C359.90 12.01 359.90 12.04 359.80 12.04C359.65 12.04 357.01 12.08 355.52 12.08C355.45 12.08 355.40 10.11 355.36 8.26C355.36 8.06 355.40 8.09 355.54 8.09L357.83 8.09C358.53 8.09 358.55 8.20 358.55 8.30L358.55 9.00C358.55 9.14 358.74 9.14 358.85 9.14C358.95 9.14 359.07 9.13 359.07 9.02C359.07 8.83 359.04 8.33 359.04 7.83C359.04 7.32 359.07 6.83 359.07 6.71C359.07 6.59 358.93 6.58 358.83 6.58C358.72 6.58 358.55 6.59 358.55 6.72L358.55 7.45C358.55 7.62 358.11 7.63 357.83 7.63L355.49 7.63C355.38 7.63 355.36 7.63 355.36 7.45C355.35 6.75 355.33 6.06 355.33 5.46C355.33 5.12 355.33 3.71 355.42 3.71C356.65 3.71 359.16 3.75 359.16 3.81C359.16 3.99 359.11 4.83 359.11 4.89C359.11 5.04 359.18 5.10 359.37 5.10C359.56 5.10 359.63 5.08 359.63 4.94C359.63 3.85 359.69 3.36 359.69 3.09C359.69 2.91 359.60 2.90 359.41 2.90C359.21 2.90 359.21 2.95 359.18 3.11C359.17 3.25 359.24 3.25 358.33 3.25C357.71 3.25 355.57 3.29 354.80 3.29C354.31 3.29 353.37 3.25 353.28 3.25C353.15 3.25 353.09 3.30 353.09 3.49C353.09 3.72 353.16 3.74 353.33 3.74L353.99 3.74C354.05 3.74 354.12 4.79 354.12 5.71C354.12 5.80 354.17 8.27 354.17 9.83L354.17 11.17C354.17 11.84 354.14 12.18 354.12 12.18L353.26 12.18C353.04 12.18 352.98 12.21 352.98 12.39ZM368.38 12.46C368.38 12.63 368.40 12.70 368.58 12.70C368.73 12.70 369.96 12.64 370.36 12.64C371.21 12.64 372.09 12.70 372.95 12.70C375.56 12.70 377.96 11.07 377.96 7.91C377.96 4.89 375.62 3.07 372.58 3.07C372.02 3.07 370.76 3.23 369.73 3.23C369.25 3.23 368.79 3.22 368.73 3.22C368.55 3.22 368.54 3.32 368.54 3.49C368.54 3.68 368.61 3.70 368.73 3.70L369.70 3.67C369.73 3.67 369.73 4.20 369.73 4.72C369.73 5.91 369.64 12.21 369.56 12.21L368.66 12.21C368.48 12.21 368.38 12.22 368.38 12.46ZM370.96 11.40C370.96 9.46 370.96 7.52 370.97 5.60C370.97 5.03 371.01 3.61 371.06 3.60C371.35 3.53 371.94 3.51 372.29 3.51C374.85 3.51 376.46 5.75 376.46 7.73C376.46 8.95 376.42 12.25 371.74 12.25C371.48 12.25 371.07 12.25 370.97 12.21C370.96 12.19 370.96 11.79 370.96 11.40ZM395.72 12.39C395.72 12.63 395.77 12.68 395.96 12.68C396.28 12.68 397.04 12.64 397.75 12.64C398.41 12.64 399.21 12.68 399.43 12.68C399.60 12.68 399.63 12.61 399.63 12.40C399.63 12.24 399.60 12.18 399.43 12.18L398.47 12.18C398.37 12.18 398.34 9.55 398.34 7.76L398.34 5.87C398.34 5.14 398.37 3.70 398.47 3.70L399.38 3.70C399.60 3.70 399.63 3.68 399.63 3.49C399.63 3.25 399.60 3.19 399.43 3.19C399.11 3.19 398.44 3.23 397.78 3.23C396.97 3.23 396.26 3.19 396.03 3.19C395.85 3.19 395.78 3.21 395.78 3.44C395.78 3.68 395.86 3.70 396.03 3.70L396.96 3.70C397.00 3.70 397.07 4.79 397.07 5.71L397.07 7.08C397.07 8.92 397.05 12.18 396.94 12.18L396.02 12.18C395.79 12.18 395.72 12.19 395.72 12.39ZM407.26 5.01C407.26 5.17 407.44 5.17 407.57 5.17C407.72 5.17 407.76 5.15 407.78 4.97L407.89 3.89C407.90 3.81 408.45 3.75 409.21 3.75L411.19 3.75C411.25 3.75 411.28 4.35 411.28 4.97C411.28 6.43 411.22 12.18 411.10 12.18L410.23 12.18C410.00 12.18 409.96 12.19 409.96 12.39C409.96 12.63 409.98 12.68 410.17 12.68C410.49 12.68 411.47 12.64 411.89 12.64C412.31 12.64 413.25 12.68 413.57 12.68C413.74 12.68 413.77 12.61 413.77 12.40C413.77 12.24 413.74 12.18 413.57 12.18L412.58 12.18C412.55 12.18 412.55 11.76 412.55 11.31C412.55 9.56 412.64 5.96 412.64 5.92C412.65 5.18 412.65 3.75 412.75 3.75L414.36 3.75C415.07 3.75 415.90 3.78 415.90 3.85C415.90 3.99 415.86 4.90 415.86 4.97C415.86 5.12 415.93 5.17 416.11 5.17C416.30 5.17 416.37 5.17 416.37 5.03C416.37 3.93 416.43 3.40 416.43 3.14C416.43 2.94 416.35 2.94 416.15 2.94C416.00 2.94 415.94 2.98 415.93 3.16C415.93 3.23 415.28 3.28 414.44 3.28L409.44 3.28C408.79 3.28 407.97 3.28 407.97 3.21L407.97 3.07C407.97 2.94 407.85 2.94 407.75 2.94C407.53 2.94 407.50 3.00 407.48 3.19C407.43 3.89 407.26 4.97 407.26 5.01ZM422.79 12.07C422.79 12.31 423.23 12.75 423.65 12.75C423.84 12.75 424.28 12.35 424.28 11.90C424.28 11.51 423.71 11.20 423.44 11.20C423.18 11.20 422.79 11.76 422.79 12.07ZM442.58 12.60L448.18 12.60L448.18 6.16L442.58 6.16ZM443.28 11.90L443.28 6.86L447.48 6.86L447.48 11.90ZM456.58 12.60L462.18 12.60L462.18 6.16L456.58 6.16ZM457.28 11.90L457.28 6.86L461.48 6.86L461.48 11.90ZM470.67 6.27C470.67 6.40 470.86 6.57 470.93 6.57C471.07 6.57 472.43 5.25 472.43 4.23C472.43 3.86 471.83 2.98 471.67 2.98C471.44 2.98 470.97 3.60 470.97 3.91C470.97 4.31 471.65 4.68 471.65 5.00C471.65 5.43 470.67 6.22 470.67 6.27ZM473.26 6.27C473.26 6.40 473.45 6.57 473.52 6.57C473.66 6.57 475.02 5.25 475.02 4.23C475.02 3.86 474.42 2.98 474.26 2.98C474.03 2.98 473.56 3.60 473.56 3.91C473.56 4.31 474.24 4.68 474.24 5.00C474.24 5.43 473.26 6.22 473.26 6.27Z"></path></g></svg>