<svg data-v-423bf9ae="" xmlns="http://www.w3.org/2000/svg" viewBox="0 0 261.3047866283809 60" class="font"><!----><!----><!----><g data-v-423bf9ae="" id="2b91cb92-1168-4357-b093-8b9cf449a2a2" fill="black" transform="matrix(5.0377834398576615,0,0,5.0377834398576615,4.231736496369265,-15.16372834434609)"><path d="M10.22 4.87L10.22 4.87Q10.22 5.20 9.96 5.60Q9.70 6.00 9.29 6.41Q8.89 6.82 8.39 7.20Q7.89 7.59 7.40 7.90L7.40 7.90Q7 8.15 6.63 8.36Q6.25 8.57 5.93 8.75Q5.61 8.93 5.34 9.10Q5.07 9.27 4.87 9.44L4.87 9.44Q5.37 9.53 5.75 9.61Q6.13 9.70 6.36 9.82L6.36 9.82Q6.52 9.93 6.69 10.16Q6.86 10.39 7 10.63Q7.14 10.87 7.22 11.06Q7.31 11.26 7.31 11.30L7.31 11.30Q7.31 11.60 7.15 11.94Q7 12.27 6.73 12.60Q6.46 12.93 6.09 13.24Q5.71 13.55 5.27 13.80Q4.83 14.05 4.34 14.22Q3.85 14.40 3.34 14.45L3.34 14.45Q3.12 14.27 2.91 14.06Q2.69 13.85 2.52 13.67Q2.35 13.49 2.24 13.35Q2.12 13.22 2.09 13.19L2.09 13.19Q1.85 13.57 1.59 13.88Q1.34 14.20 1.09 14.41Q0.84 14.63 0.59 14.74Q0.34 14.85 0.10 14.84L0.10 14.84Q-0.01 14.83-0.12 14.76Q-0.23 14.69-0.33 14.58Q-0.43 14.47-0.52 14.34Q-0.62 14.21-0.69 14.09Q-0.76 13.97-0.80 13.87Q-0.84 13.77-0.84 13.73L-0.84 13.73Q-0.84 13.02-0.54 12.13Q-0.23 11.25 0.29 10.31Q0.82 9.37 1.54 8.42Q2.26 7.47 3.08 6.62L3.08 6.62Q3.36 5.64 3.53 4.71Q3.70 3.78 3.71 3.01L3.71 3.01Q4.16 3.25 4.44 3.48Q4.71 3.71 4.87 3.88L4.87 3.88Q5.04 4.09 5.13 4.29L5.13 4.29Q5.17 4.41 5.17 4.63L5.17 4.63Q5.17 4.68 5.16 4.72Q5.16 4.76 5.15 4.81L5.15 4.81Q6.11 4.13 7.06 3.72Q8.00 3.32 8.87 3.32L8.87 3.32Q8.98 3.32 9.13 3.40Q9.27 3.48 9.42 3.62Q9.56 3.75 9.71 3.92Q9.86 4.09 9.97 4.26Q10.08 4.44 10.15 4.60Q10.22 4.76 10.22 4.87ZM3.75 9.80L3.75 9.80Q3.38 10.73 2.97 11.60Q2.56 12.47 2.11 13.17L2.11 13.17Q2.88 13.10 3.55 12.94Q4.22 12.78 4.76 12.52Q5.30 12.25 5.71 11.86Q6.12 11.47 6.38 10.94L6.38 10.94Q6.24 10.87 6.08 10.81Q5.92 10.75 5.74 10.70Q5.56 10.65 5.38 10.61Q5.20 10.58 5.03 10.54L5.03 10.54Q4.63 10.47 4.21 10.43L4.21 10.43Q4.12 10.42 3.99 10.23Q3.86 10.04 3.75 9.80ZM4.81 6.55L4.81 6.55Q4.70 6.97 4.56 7.43Q4.42 7.90 4.25 8.39L4.25 8.39Q4.87 7.89 5.57 7.44Q6.28 7 6.98 6.54Q7.68 6.08 8.30 5.55Q8.92 5.03 9.37 4.37L9.37 4.37Q9.39 4.33 9.39 4.29Q9.39 4.24 9.36 4.19Q9.33 4.15 9.29 4.12Q9.24 4.09 9.18 4.09L9.18 4.09Q8.80 4.09 8.30 4.27Q7.81 4.45 7.24 4.77Q6.67 5.10 6.05 5.55Q5.43 6.01 4.81 6.55ZM0.12 13.54L0.12 13.54Q0.18 13.54 0.30 13.39Q0.42 13.23 0.58 12.96Q0.75 12.68 0.94 12.29Q1.13 11.89 1.35 11.42Q1.56 10.94 1.78 10.40Q2.00 9.85 2.22 9.26L2.22 9.26Q1.82 9.78 1.46 10.30Q1.11 10.82 0.82 11.34Q0.54 11.86 0.34 12.37Q0.14 12.88 0.04 13.36L0.04 13.36Q0.02 13.45 0.05 13.50Q0.08 13.54 0.12 13.54ZM9.32 12.98L9.32 12.98Q9.32 13.19 9.47 13.19L9.47 13.19Q9.63 13.19 9.89 12.94Q10.15 12.69 10.43 12.30L10.43 12.30Q10.42 12.23 10.41 12.17Q10.41 12.11 10.41 12.07L10.41 12.07Q10.41 11.93 10.44 11.74Q10.47 11.55 10.60 11.31L10.60 11.31Q10.68 11.13 10.79 10.95L10.79 10.95Q10.89 10.79 11.03 10.61Q11.16 10.43 11.33 10.27L11.33 10.27L11.37 10.23Q11.44 10.32 11.55 10.46Q11.66 10.60 11.77 10.74Q11.89 10.89 11.97 11.01Q12.06 11.14 12.08 11.18L12.08 11.18Q12.08 11.48 11.97 11.77Q11.87 12.07 11.69 12.35L11.69 12.35Q12.10 12.33 12.45 12.14Q12.80 11.96 13.19 11.55L13.19 11.55Q13.25 11.61 13.35 11.72Q13.45 11.83 13.51 11.90L13.51 11.90Q13.22 12.20 12.94 12.40Q12.67 12.60 12.39 12.71Q12.11 12.83 11.83 12.88Q11.54 12.93 11.24 12.93L11.24 12.93Q11.01 13.18 10.74 13.38Q10.47 13.59 10.20 13.74Q9.92 13.89 9.65 13.97Q9.37 14.05 9.13 14.05L9.13 14.05Q8.92 14.05 8.70 13.93Q8.48 13.81 8.31 13.63Q8.13 13.45 8.01 13.24Q7.90 13.04 7.90 12.88L7.90 12.88Q7.90 12.36 8.04 11.85Q8.18 11.33 8.47 10.89Q8.77 10.44 9.23 10.10Q9.69 9.75 10.33 9.58L10.33 9.58Q10.35 9.56 10.40 9.56Q10.45 9.55 10.49 9.55L10.49 9.55Q10.58 9.55 10.69 9.62Q10.79 9.69 10.89 9.78Q10.98 9.87 11.04 9.96Q11.10 10.04 11.10 10.07L11.10 10.07Q11.09 10.10 11.00 10.15Q10.91 10.21 10.76 10.33Q10.61 10.45 10.40 10.68Q10.20 10.91 9.95 11.29L9.95 11.29Q9.58 11.84 9.45 12.29Q9.32 12.74 9.32 12.98ZM13.92 12.98L13.92 12.98Q13.92 13.19 14.07 13.19L14.07 13.19Q14.23 13.19 14.49 12.94Q14.75 12.69 15.03 12.30L15.03 12.30Q15.01 12.23 15.01 12.17Q15.00 12.11 15.00 12.07L15.00 12.07Q15.00 11.93 15.04 11.74Q15.07 11.55 15.19 11.31L15.19 11.31Q15.27 11.13 15.39 10.95L15.39 10.95Q15.48 10.79 15.62 10.61Q15.76 10.43 15.92 10.27L15.92 10.27L15.96 10.23Q16.03 10.32 16.14 10.46Q16.26 10.60 16.37 10.74Q16.48 10.89 16.57 11.01Q16.65 11.14 16.67 11.18L16.67 11.18Q16.67 11.48 16.57 11.77Q16.46 12.07 16.28 12.35L16.28 12.35Q16.69 12.33 17.05 12.14Q17.40 11.96 17.78 11.55L17.78 11.55Q17.84 11.61 17.94 11.72Q18.04 11.83 18.10 11.90L18.10 11.90Q17.81 12.20 17.54 12.40Q17.26 12.60 16.98 12.71Q16.71 12.83 16.42 12.88Q16.13 12.93 15.83 12.93L15.83 12.93Q15.60 13.18 15.33 13.38Q15.07 13.59 14.79 13.74Q14.51 13.89 14.24 13.97Q13.97 14.05 13.72 14.05L13.72 14.05Q13.51 14.05 13.30 13.93Q13.08 13.81 12.90 13.63Q12.72 13.45 12.61 13.24Q12.49 13.04 12.49 12.88L12.49 12.88Q12.49 12.36 12.63 11.85Q12.77 11.33 13.07 10.89Q13.36 10.44 13.83 10.10Q14.29 9.75 14.92 9.58L14.92 9.58Q14.94 9.56 14.99 9.56Q15.05 9.55 15.08 9.55L15.08 9.55Q15.18 9.55 15.28 9.62Q15.39 9.69 15.48 9.78Q15.57 9.87 15.63 9.96Q15.70 10.04 15.70 10.07L15.70 10.07Q15.68 10.10 15.59 10.15Q15.50 10.21 15.35 10.33Q15.20 10.45 15.00 10.68Q14.79 10.91 14.55 11.29L14.55 11.29Q14.18 11.84 14.05 12.29Q13.92 12.74 13.92 12.98ZM21.44 13.00L21.44 13.00Q21.55 13.00 21.71 12.91Q21.88 12.83 22.08 12.70Q22.28 12.58 22.49 12.42Q22.70 12.26 22.88 12.11Q23.07 11.96 23.22 11.83Q23.37 11.70 23.45 11.63L23.45 11.63Q23.52 11.70 23.60 11.79Q23.69 11.89 23.76 11.97L23.76 11.97Q23.61 12.12 23.39 12.34Q23.16 12.55 22.90 12.78Q22.63 13.00 22.35 13.23Q22.07 13.45 21.80 13.63Q21.53 13.81 21.29 13.92Q21.06 14.03 20.90 14.03L20.90 14.03Q20.64 14.03 20.42 13.92Q20.21 13.82 20.03 13.65Q19.86 13.48 19.71 13.27Q19.56 13.05 19.43 12.82L19.43 12.82Q19.31 12.97 19.19 13.16Q19.07 13.34 18.97 13.50Q18.87 13.67 18.80 13.79Q18.73 13.91 18.71 13.94L18.71 13.94Q18.70 13.99 18.67 14.02Q18.64 14.04 18.58 14.04L18.58 14.04Q18.48 14.04 18.34 13.96Q18.20 13.88 18.05 13.75Q17.91 13.62 17.77 13.47Q17.63 13.32 17.53 13.16L17.53 13.16Q17.47 13.08 17.46 12.99Q17.45 12.89 17.45 12.76L17.45 12.76Q17.45 12.30 17.55 11.74Q17.66 11.17 17.86 10.54Q18.06 9.92 18.34 9.25Q18.61 8.59 18.95 7.93Q19.28 7.28 19.67 6.66Q20.06 6.04 20.48 5.50Q20.90 4.96 21.33 4.53Q21.77 4.09 22.22 3.82L22.22 3.82Q22.29 3.78 22.34 3.77Q22.40 3.75 22.44 3.75L22.44 3.75Q22.52 3.75 22.67 3.85Q22.83 3.94 22.99 4.07Q23.16 4.20 23.31 4.33Q23.45 4.46 23.52 4.54L23.52 4.54Q23.56 4.60 23.56 4.72L23.56 4.72Q23.56 5.17 23.26 5.84Q22.96 6.51 22.42 7.32Q21.87 8.13 21.09 9.04Q20.32 9.95 19.37 10.87L19.37 10.87Q19.26 11.22 19.17 11.56Q19.07 11.91 18.99 12.26L18.99 12.26Q19.63 11.33 20.13 10.80Q20.62 10.26 20.98 9.98Q21.33 9.71 21.56 9.63Q21.78 9.55 21.87 9.55L21.87 9.55Q21.95 9.55 22.06 9.64Q22.18 9.72 22.28 9.83Q22.38 9.95 22.46 10.05Q22.54 10.16 22.57 10.21L22.57 10.21Q22.58 10.27 22.43 10.48Q22.28 10.69 22.01 10.96Q21.75 11.24 21.38 11.54Q21.01 11.85 20.58 12.11L20.58 12.11Q20.80 12.42 20.96 12.60Q21.12 12.78 21.23 12.87L21.23 12.87Q21.35 12.97 21.44 13.00ZM20.71 7.48L20.71 7.48Q20.50 7.89 20.29 8.39Q20.07 8.89 19.86 9.45L19.86 9.45Q20.62 8.59 21.15 7.85Q21.69 7.11 22.04 6.51Q22.38 5.91 22.54 5.46Q22.70 5.00 22.70 4.69L22.70 4.69Q22.70 4.67 22.69 4.65Q22.69 4.62 22.65 4.62L22.65 4.62Q22.57 4.62 22.39 4.81Q22.20 5.00 21.94 5.37Q21.68 5.74 21.37 6.27Q21.05 6.80 20.71 7.48ZM30.78 3.12L32.81 5.13Q32.58 6.33 32.09 7.46Q31.61 8.59 30.97 9.60Q30.33 10.61 29.58 11.48Q28.83 12.35 28.09 13.03Q27.34 13.71 26.64 14.18Q25.94 14.65 25.40 14.87L25.40 14.87Q25.33 14.90 25.27 14.91Q25.21 14.92 25.19 14.92L25.19 14.92Q25.05 14.92 24.91 14.81Q24.76 14.70 24.63 14.56Q24.49 14.42 24.39 14.27Q24.29 14.13 24.25 14.05L24.25 14.05Q24.22 14 24.19 13.89Q24.15 13.79 24.15 13.65L24.15 13.65Q24.15 13.30 24.23 12.69Q24.30 12.09 24.45 11.31Q24.59 10.53 24.78 9.61Q24.98 8.70 25.22 7.72Q25.47 6.74 25.75 5.73Q26.03 4.72 26.34 3.77L26.34 3.77Q26.44 3.88 26.59 4.05Q26.74 4.23 26.91 4.43Q27.07 4.63 27.23 4.84Q27.39 5.04 27.52 5.21Q27.64 5.37 27.72 5.48Q27.79 5.58 27.79 5.58L27.79 5.58Q27.43 6.67 27.11 7.75Q26.79 8.84 26.51 9.88Q26.24 10.92 26.00 11.89Q25.76 12.87 25.55 13.71L25.55 13.71Q26.36 13.22 27.07 12.54Q27.77 11.87 28.37 11.07Q28.96 10.27 29.43 9.39Q29.90 8.50 30.23 7.60Q30.55 6.69 30.72 5.80Q30.89 4.91 30.89 4.09L30.89 4.09Q30.89 3.86 30.87 3.69Q30.86 3.52 30.84 3.40Q30.82 3.29 30.80 3.22Q30.78 3.16 30.78 3.12L30.78 3.12ZM35.31 13.08L35.31 13.08Q35.31 13.12 35.36 13.12L35.36 13.12Q35.42 13.12 35.56 13.03Q35.70 12.94 35.89 12.80Q36.07 12.67 36.28 12.50Q36.49 12.33 36.68 12.16Q36.87 12.00 37.03 11.86Q37.18 11.72 37.26 11.65L37.26 11.65Q37.32 11.71 37.42 11.81Q37.51 11.92 37.58 12.00L37.58 12.00Q37.42 12.15 37.19 12.36Q36.96 12.58 36.70 12.81Q36.44 13.04 36.16 13.27Q35.88 13.50 35.61 13.68Q35.34 13.86 35.10 13.97Q34.86 14.08 34.69 14.08L34.69 14.08Q34.56 14.08 34.42 14.03Q34.27 13.99 34.15 13.90Q34.02 13.82 33.94 13.70Q33.86 13.58 33.86 13.44L33.86 13.44Q33.86 13.38 33.85 13.31Q33.85 13.23 33.87 13.10Q33.88 12.97 33.92 12.79Q33.96 12.61 34.04 12.35L34.04 12.35Q33.82 12.58 33.51 12.84Q33.21 13.10 32.87 13.34Q32.54 13.57 32.20 13.76Q31.86 13.95 31.58 14.04L31.58 14.04Q31.54 14.05 31.52 14.05Q31.50 14.05 31.48 14.05L31.48 14.05Q31.41 14.05 31.30 13.99Q31.19 13.92 31.08 13.81Q30.97 13.69 30.89 13.55Q30.81 13.41 30.81 13.26L30.81 13.26Q30.81 13.22 30.85 12.99Q30.89 12.76 31.05 12.40Q31.20 12.04 31.50 11.59Q31.80 11.14 32.32 10.67L32.32 10.67Q32.59 10.43 32.89 10.22L32.89 10.22Q33.15 10.04 33.49 9.86Q33.82 9.67 34.19 9.56L34.19 9.56Q34.21 9.56 34.22 9.56Q34.23 9.55 34.25 9.56L34.25 9.56Q34.33 9.59 34.44 9.65Q34.56 9.71 34.67 9.77Q34.78 9.84 34.87 9.90Q34.95 9.97 34.98 10.01L34.98 10.01Q34.99 10.02 34.98 10.03L34.98 10.03L34.97 10.04Q34.66 10.21 34.38 10.41Q34.11 10.61 33.90 10.79L33.90 10.79Q33.65 11.00 33.44 11.20L33.44 11.20Q32.94 11.70 32.75 12.06Q32.56 12.41 32.56 12.57L32.56 12.57Q32.56 12.69 32.66 12.69L32.66 12.69Q32.75 12.69 32.90 12.61Q33.04 12.53 33.23 12.40Q33.41 12.26 33.64 12.08Q33.86 11.90 34.10 11.70L34.10 11.70Q34.31 11.53 34.51 11.33L34.51 11.33Q34.68 11.17 34.86 10.96Q35.05 10.75 35.18 10.53L35.18 10.53Q35.18 10.52 35.18 10.51L35.18 10.51Q35.19 10.51 35.21 10.51L35.21 10.51Q35.28 10.57 35.38 10.69Q35.47 10.82 35.55 10.97Q35.64 11.12 35.69 11.26Q35.75 11.40 35.75 11.48L35.75 11.48Q35.59 11.80 35.51 12.06Q35.42 12.33 35.38 12.52Q35.33 12.72 35.32 12.86Q35.31 13.00 35.31 13.08ZM40.82 13.08L40.82 13.08Q40.82 13.12 40.86 13.12L40.86 13.12Q40.93 13.12 41.09 13.03Q41.24 12.94 41.44 12.80Q41.64 12.67 41.86 12.50Q42.08 12.33 42.27 12.16Q42.47 12.00 42.63 11.87Q42.79 11.73 42.88 11.66L42.88 11.66Q42.94 11.72 43.02 11.82Q43.11 11.92 43.18 12.00L43.18 12.00Q43.03 12.15 42.80 12.36Q42.57 12.57 42.30 12.80Q42.03 13.03 41.74 13.25Q41.45 13.47 41.18 13.65Q40.91 13.82 40.67 13.93Q40.43 14.04 40.27 14.04L40.27 14.04Q40.15 14.04 40.01 13.97Q39.87 13.90 39.74 13.78Q39.61 13.67 39.53 13.54Q39.44 13.40 39.44 13.28L39.44 13.28Q39.44 13.17 39.53 12.86Q39.61 12.55 39.72 12.14L39.72 12.14Q39.42 12.56 39.12 12.88Q38.83 13.19 38.58 13.42Q38.34 13.64 38.15 13.78Q37.97 13.92 37.88 13.99L37.88 13.99Q37.82 14.02 37.75 14.04Q37.67 14.05 37.61 14.05L37.61 14.05Q37.48 14.05 37.32 13.98Q37.17 13.90 37.03 13.78Q36.90 13.67 36.81 13.52Q36.72 13.38 36.72 13.25L36.72 13.25Q36.72 13.10 36.81 12.75Q36.91 12.40 37.08 11.92Q37.25 11.43 37.47 10.83Q37.70 10.23 37.96 9.56L37.96 9.56Q37.97 9.53 37.98 9.53Q37.99 9.54 38.02 9.54L38.02 9.54Q38.15 9.56 38.38 9.64Q38.60 9.73 38.82 9.83Q39.03 9.93 39.19 10.02Q39.35 10.12 39.35 10.15L39.35 10.15Q39.33 10.20 39.24 10.38Q39.16 10.55 39.04 10.80Q38.93 11.05 38.80 11.34Q38.68 11.63 38.57 11.90Q38.47 12.17 38.40 12.38Q38.33 12.60 38.33 12.70L38.33 12.70Q38.33 12.73 38.36 12.73L38.36 12.73Q38.41 12.73 38.60 12.58Q38.78 12.43 39.05 12.12Q39.32 11.81 39.66 11.31Q40.00 10.81 40.37 10.12L40.37 10.12L40.56 9.58Q40.58 9.52 40.65 9.52L40.65 9.52Q40.70 9.52 40.86 9.61Q41.02 9.71 41.20 9.83Q41.38 9.95 41.53 10.07Q41.67 10.19 41.69 10.23L41.69 10.23Q41.69 10.25 41.68 10.31Q41.67 10.36 41.66 10.39L41.66 10.39Q41.59 10.58 41.50 10.82Q41.41 11.07 41.32 11.34Q41.23 11.61 41.14 11.89Q41.05 12.16 40.98 12.40Q40.91 12.63 40.86 12.81Q40.82 13.00 40.82 13.08ZM44.30 13.20L44.30 13.20Q44.41 13.20 44.60 13.10Q44.79 13.01 45.01 12.86Q45.24 12.71 45.49 12.54Q45.73 12.36 45.95 12.19Q46.16 12.02 46.33 11.87Q46.50 11.73 46.59 11.66L46.59 11.66Q46.65 11.72 46.73 11.82Q46.82 11.92 46.89 12.00L46.89 12.00Q46.74 12.15 46.52 12.36Q46.29 12.58 46.03 12.80Q45.77 13.03 45.48 13.25Q45.20 13.48 44.93 13.66Q44.66 13.84 44.43 13.95Q44.19 14.05 44.04 14.05L44.04 14.05Q43.83 14.05 43.59 13.90Q43.35 13.75 43.15 13.55Q42.94 13.35 42.80 13.15Q42.66 12.94 42.64 12.84L42.64 12.84Q42.62 12.80 42.62 12.74Q42.62 12.68 42.62 12.61L42.62 12.61Q42.62 12.27 42.71 11.75Q42.79 11.22 42.94 10.64Q43.08 10.06 43.27 9.48Q43.46 8.90 43.66 8.46L43.66 8.46Q44.08 7.55 44.52 6.84Q44.96 6.14 45.38 5.62Q45.81 5.09 46.20 4.74Q46.59 4.38 46.90 4.16Q47.21 3.94 47.42 3.85Q47.64 3.75 47.72 3.75L47.72 3.75Q47.85 3.80 47.98 3.89Q48.12 3.99 48.23 4.09Q48.35 4.19 48.44 4.29Q48.53 4.39 48.57 4.44L48.57 4.44Q48.62 4.49 48.64 4.54Q48.66 4.59 48.66 4.68L48.66 4.68Q48.66 4.84 48.58 5.13Q48.49 5.41 48.27 5.85Q48.04 6.30 47.64 6.91Q47.24 7.53 46.60 8.35L46.60 8.35Q46.30 8.73 45.96 9.13L45.96 9.13Q45.68 9.47 45.30 9.87Q44.93 10.27 44.53 10.64L44.53 10.64Q44.33 11.40 44.25 11.97Q44.17 12.54 44.17 12.87L44.17 12.87Q44.17 13.08 44.21 13.14Q44.24 13.20 44.30 13.20ZM45.40 8.19L45.40 8.19Q45.28 8.45 45.18 8.70Q45.08 8.94 44.99 9.18L44.99 9.18Q45.21 8.94 45.38 8.72Q45.55 8.50 45.68 8.35L45.68 8.35Q45.82 8.16 45.94 8.00L45.94 8.00Q46.42 7.33 46.76 6.77Q47.11 6.21 47.34 5.78Q47.56 5.35 47.67 5.07Q47.78 4.79 47.78 4.66L47.78 4.66Q47.78 4.63 47.77 4.61Q47.77 4.59 47.74 4.59L47.74 4.59Q47.67 4.59 47.46 4.80Q47.24 5.00 46.92 5.43Q46.60 5.87 46.21 6.55Q45.81 7.23 45.40 8.19ZM47.24 14.05L47.24 14.05Q47.13 14.05 46.94 13.95Q46.75 13.84 46.57 13.69Q46.40 13.54 46.27 13.37Q46.14 13.21 46.14 13.09L46.14 13.09Q46.14 12.89 46.25 12.44Q46.36 12.00 46.55 11.43Q46.73 10.86 46.97 10.21Q47.20 9.56 47.44 8.93L47.44 8.93L46.48 8.93L46.47 8.93Q46.46 8.93 46.46 8.92L46.46 8.92Q46.46 8.88 46.49 8.80Q46.53 8.72 46.57 8.64Q46.61 8.55 46.67 8.48Q46.73 8.41 46.79 8.39L46.79 8.39L47.67 8.35Q47.87 7.88 48.04 7.49Q48.21 7.10 48.35 6.82L48.35 6.82Q48.38 6.74 48.42 6.65Q48.46 6.57 48.53 6.48Q48.60 6.40 48.72 6.31Q48.84 6.21 49.05 6.12L49.05 6.12Q49.20 6.04 49.41 5.95Q49.63 5.87 49.84 5.79Q50.05 5.71 50.22 5.66Q50.39 5.61 50.46 5.61L50.46 5.61Q50.53 5.61 50.53 5.64L50.53 5.64L50.53 5.65Q50.53 5.66 50.52 5.69L50.52 5.69Q50.48 5.76 50.37 5.98Q50.26 6.21 50.10 6.56Q49.94 6.90 49.74 7.35Q49.55 7.79 49.34 8.28L49.34 8.28L50.98 8.22Q51.05 8.22 51.02 8.30Q51.00 8.38 50.92 8.49Q50.85 8.60 50.75 8.72Q50.65 8.83 50.58 8.89L50.58 8.89Q50.57 8.91 50.52 8.92Q50.48 8.93 50.42 8.93L50.42 8.93L49.07 8.93Q48.82 9.53 48.60 10.14Q48.37 10.75 48.19 11.29Q48.02 11.84 47.91 12.30Q47.80 12.76 47.80 13.05L47.80 13.05Q47.80 13.09 47.84 13.09L47.84 13.09Q47.92 13.09 48.07 13.01Q48.22 12.92 48.41 12.78Q48.60 12.65 48.81 12.48Q49.02 12.32 49.21 12.16Q49.40 12.00 49.56 11.86Q49.71 11.73 49.79 11.66L49.79 11.66Q49.85 11.72 49.94 11.82Q50.03 11.92 50.10 12.00L50.10 12.00Q49.95 12.15 49.72 12.36Q49.50 12.58 49.24 12.80Q48.97 13.03 48.69 13.25Q48.41 13.48 48.14 13.66Q47.87 13.84 47.63 13.95Q47.40 14.05 47.24 14.05Z"></path></g><!----><!----></svg>